<?xml version="1.0" encoding="utf-8"?>
<!-- Generator: Adobe Illustrator 23.0.3, SVG Export Plug-In . SVG Version: 6.00 Build 0)  -->
<svg version="1.1" id="remote_xA0_Image_1_" xmlns="http://www.w3.org/2000/svg" xmlns:xlink="http://www.w3.org/1999/xlink"
	 x="0px" y="0px" viewBox="0 0 452 1422" style="enable-background:new 0 0 452 1422;" xml:space="preserve">
<style type="text/css">
	.st0{fill:#2f363e}
</style>
<g>
	<path class="st0" d="M436.5,418.25c0,38.33,0.11,76.66-0.05,114.99c-0.08,18.97-0.59,37.94-0.98,56.91
		c-0.26,12.81-0.59,25.62-0.99,38.42c-0.63,20.11-1.22,40.22-2.04,60.32c-0.86,21.09-1.87,42.18-2.98,63.26
		c-1.24,23.73-2.64,47.46-4.02,71.19c-0.95,16.42-1.83,32.84-2.99,49.24c-1.47,20.7-3.25,41.37-4.8,62.06
		c-1.12,14.91-2.02,29.84-3.17,44.75c-1.15,14.88-2.48,29.76-3.76,44.63c-1.04,12.08-2.05,24.16-3.19,36.22
		c-1.04,10.91-2.26,21.8-3.38,32.7c-1.56,15.2-3.05,30.4-4.67,45.59c-2.17,20.3-4.44,40.58-6.65,60.88
		c-1.46,13.37-2.74,26.76-4.35,40.1c-2.02,16.81-4.26,33.59-6.46,50.38c-2.48,18.93-4.91,37.86-7.56,56.76
		c-2.14,15.29-4.19,30.61-6.98,45.78c-1.98,10.79-15.21,20.98-26.19,21.05c-68.64,0.4-137.28,0.52-205.91,1.32
		c-12.83,0.15-21.14-6.12-28.1-15.08c-2.52-3.25-2.97-8.35-3.66-12.72c-3.46-22.14-6.87-44.3-9.95-66.49
		c-3.95-28.44-7.52-56.94-11.33-85.41c-2.84-21.22-5.99-42.41-8.67-63.65c-2.33-18.44-4.18-36.95-6.25-55.42
		c-2.25-20.12-4.58-40.24-6.74-60.38c-1.54-14.36-2.8-28.75-4.26-43.12c-1.56-15.36-3.29-30.71-4.77-46.08
		c-1.2-12.4-2.14-24.82-3.18-37.23c-1.64-19.69-3.34-39.37-4.87-59.06c-1.17-15.07-2.05-30.16-3.18-45.24
		c-1.21-16.23-2.6-32.44-3.8-48.67c-0.81-10.93-1.44-21.88-2.14-32.82c-1.32-20.73-2.67-41.45-3.91-62.18
		c-0.8-13.44-1.39-26.89-2.11-40.34c-1.29-24.06-2.62-48.11-3.92-72.17c-0.37-6.8-0.84-13.6-1.04-20.41
		c-0.75-25.78-1.77-51.55-2.04-77.33c-0.58-57.3-0.77-114.61-1.1-171.91c-0.02-4,0.03-8,0.09-12c0.33-22.64,0.3-45.29,1.14-67.91
		c0.67-18.08,2.46-36.11,3.65-54.17c0.82-12.43,1.33-24.89,2.25-37.32c1.76-23.8,4.18-47.34,18.47-67.88
		c12.86-18.4,28.28-33.51,48.95-42.84c11.88-5.36,24.6-7.01,37.3-8.37c18.98-2.03,38-3.82,57.05-4.9
		c14.46-0.82,28.99-0.45,43.49-0.46c14.83-0.01,29.69-0.38,44.49,0.4c14.9,0.79,29.74,2.74,44.6,4.3
		c6.44,0.67,12.84,1.61,19.26,2.44c16.67,2.15,30.98,8.96,43.59,20.25c17.67,15.83,31.56,33.92,36.66,57.52
		c2.06,9.54,3.05,19.33,4.11,29.06c1.5,13.7,2.67,27.44,3.86,41.17c0.83,9.6,1.67,19.2,2.15,28.82c1.17,23.41,2.13,46.83,3.17,70.24
		c0.3,6.64,0.77,13.28,0.86,19.92c0.65,46.97,1.21,93.93,1.81,140.9C437.03,418.25,436.77,418.25,436.5,418.25z M413.46,412.07
		c-0.34,0-0.68,0-1.02,0c0-42.13,0-84.27,0-126.4c0-0.83-0.03-1.67-0.07-2.5c-1.29-26.56-2.53-53.12-3.9-79.67
		c-0.6-11.61-1.21-23.23-2.25-34.81c-1.72-19.16-3.95-38.28-5.67-57.45c-1.53-16.94-6.7-32.6-16.71-46.29
		c-11.42-15.61-25.91-27.41-45.54-30.94c-10.27-1.85-20.74-2.71-31.15-3.67c-15.7-1.44-31.42-3.58-47.14-3.63
		c-29.27-0.09-58.57,0.64-87.81,1.96c-16.72,0.75-33.48,2.55-50,5.24c-34.48,5.62-61.2,35.8-67.47,67.68
		c-2.93,14.91-3.86,30.26-5.1,45.46c-1.65,20.37-2.97,40.77-3.97,61.17c-0.98,19.93-1.96,39.88-1.95,59.82
		c0.02,66.3,0.44,132.6,0.83,198.9c0.1,16.8,0.62,33.61,1.07,50.41c0.23,8.8,0.64,17.6,1.1,26.4c1.23,23.89,2.54,47.79,3.81,71.68
		c0.39,7.47,0.65,14.95,1.11,22.42c1.26,20.55,2.62,41.1,3.87,61.65c0.78,12.77,1.36,25.55,2.17,38.32
		c1.23,19.39,2.53,38.78,3.89,58.16c0.96,13.59,2.07,27.17,3.15,40.74c1.25,15.72,2.57,31.43,3.8,47.14
		c0.85,10.93,1.5,21.87,2.41,32.8c1.12,13.4,2.39,26.79,3.64,40.18c0.86,9.26,1.75,18.51,2.68,27.76
		c1.07,10.73,2.2,21.46,3.31,32.19c1.18,11.39,2.33,22.79,3.57,34.18c1.77,16.34,3.59,32.66,5.41,48.99
		c1.85,16.66,3.6,33.33,5.61,49.97c1.62,13.35,3.66,26.64,5.35,39.98c2.54,20.09,4.79,40.22,7.45,60.29
		c2.31,17.44,4.98,34.83,7.55,52.24c3.9,26.44,7.76,52.88,11.81,79.29c1.23,8.01,3.67,9.8,12.02,9.75
		c44.64-0.31,89.27-0.7,133.91-0.97c20.16-0.12,40.33,0.01,60.49-0.06c7.18-0.03,10.94-3.03,11.74-8.96
		c2.72-20.23,5.44-40.46,8.17-60.69c3.31-24.5,6.72-48.99,9.89-73.51c1.66-12.83,2.85-25.73,4.34-38.58
		c1.83-15.82,3.92-31.61,5.58-47.44c1.62-15.52,2.66-31.09,4.27-46.61c2.08-19.96,4.73-39.87,6.67-59.84
		c1.99-20.48,3.47-41.01,5.07-61.53c1.74-22.34,3.37-44.69,5.03-67.03c1.34-18.05,2.81-36.08,3.95-54.14
		c1.81-28.5,3.4-57.01,5.07-85.51c0.97-16.58,2.05-33.15,2.86-49.74c1.15-23.74,2.21-47.49,3.11-71.24
		c0.81-21.44,1.49-42.89,1.98-64.34c0.79-35.4,1.58-70.81,1.98-106.22C413.72,467.4,413.46,439.73,413.46,412.07z"/>
	<path class="st0" d="M128.47,553.77c17.59-14.84,34.43-29.04,51.25-43.24c2.28-1.92,4.79-3.66,6.74-5.87
		c2.58-2.92,4.66-2.74,8.01-0.89c19.56,10.77,39.74,11.41,60.4,3.1c1.5-0.6,4.4-0.1,5.48,1.02c16.11,16.78,32.02,33.75,47.98,50.68
		c1.47,1.56,2.96,3.11,4.92,5.18c-25.76,19.3-54.76,28.57-86.18,28.47C189.85,592.09,156.81,579.51,128.47,553.77z"/>
	<path class="st0" d="M289.67,423.04c23.26-13.49,46.03-26.7,68.83-39.92c28.23,55.61,14.35,130.48-34.02,170.9
		c-17.86-18.87-35.74-37.76-53.98-57.03C292.8,476.5,297.87,451.58,289.67,423.04z"/>
	<path class="st0" d="M118.49,543.06C77.64,500.79,71.73,432.38,93.4,388.39c6.73,3.86,13.45,7.66,20.13,11.56
		c15.61,9.1,31.17,18.31,46.83,27.32c2.62,1.51,3.07,2.91,2.53,5.96c-3.88,21.82,1.04,41.41,16.03,58.46
		c-10.11,8.75-20.03,17.47-30.1,26.03C138.86,526.18,128.77,534.48,118.49,543.06z"/>
	<path class="st0" d="M98.92,374.61c5.3-7.46,9.84-14.83,15.34-21.39c24.31-29.01,55.14-46.59,92.78-51.85
		c3.28-0.46,6.61-0.57,9.9-0.97c3.55-0.42,4.69,1.15,4.62,4.58c-0.16,8.16-0.16,16.33-0.03,24.49c0.25,15.46,0.61,30.92,0.98,46.37
		c0.07,3-0.48,5.23-4.06,5.62c-21.62,2.34-37.13,13.95-48.36,32.02c-0.26,0.42-0.6,0.79-1.31,1.72
		C145.83,401.87,122.84,388.51,98.92,374.61z"/>
	<path class="st0" d="M351.62,370.22c-23.06,13.41-45.69,26.57-67.68,39.36c-6.19-5.84-11.78-11.74-18.03-16.84
		c-7.32-5.98-16.11-9.26-25.37-10.94c-3.16-0.57-4.08-1.78-4.11-4.84c-0.23-23.3-0.63-46.6-0.92-69.89
		c-0.08-6.79,0.59-7.4,7.56-6.47c17.27,2.33,33.91,6.85,49.51,14.8c22.89,11.67,41.52,28.18,55.89,49.47
		C349.56,366.47,350.45,368.21,351.62,370.22z"/>
</g>
</svg>
